<svg height="12" viewBox="0 0 12 12" width="12" xmlns="http://www.w3.org/2000/svg"><path d="m11.8648009 4.49016165c.1750017.48319885.1801118.93286991.0153302 1.34901318s-.5509754.72501183-1.1585813.9266057c-.3819237.13325696-.86408835.19013319-1.44649399.1706287-.58240565-.01950449-1.16089126-.01729778-1.73545683.00662014.44912435.36446348.93247904.72266275 1.45006406 1.0745978.51758502.35193506.89565868.69746352 1.13422096 1.03658541.3788437.51992993.510795.99529852.3958539 1.42610572-.1149411.4308073-.3770937.7961249-.78645765 1.0959531-.40908397.2998282-.83160806.4363596-1.26757229.4095943s-.84350818-.2971231-1.22263185-.8110736c-.26180254-.3576298-.47887465-.8616145-.65121632-1.51195398-.17234167-.65033953-.37499363-1.26209718-.60795589-1.83527296-.22064214.57317578-.4230141 1.18493343-.60711589 1.83527296-.18410178.65033948-.40103389 1.15432418-.65079631 1.51195398-.3609235.5139505-.7639174.7874404-1.20898172.8204699-.44506431.0330296-.87829851-.106634-1.2997026-.4189906-.39116379-.2941334-.64428625-.6580274-.75936736-1.091682-.11508112-.4336546.00784007-.91044689.36876357-1.43037682.25648249-.33912189.6390362-.68465035 1.14766113-1.03658541.50862493-.35193505.98763957-.71013432 1.43704393-1.0745978-.57484557-.02391792-1.15207117-.02754831-1.73167679-.01089119s-1.0631703-.03879543-1.45069406-.16635765c-.59528577-.18337069-.96768938-.48768346-1.11721083-.91293832-.14952145-.42525485-.14910145-.87948171.00126001-1.36268056.15008145-.50854046.41594403-.8777021.79758773-1.10748494s.86394838-.24999917 1.44691403-.060649c.38724375.11474905.82278798.36097545 1.30663267.73867921s.94976921.7346929 1.39777355 1.07096741c-.15708152-.57887052-.3406233-1.17034065-.55062534-1.7744104-.21000203-.60406976-.31500305-1.11510166-.31500305-1.53309572 0-.63610267.17150166-1.09915638.51450499-1.38916111.34300332-.29000473.76734743-.4350071 1.27303234-.4350071.51772502 0 .94227913.14500237 1.27366235.4350071.33138321.29000473.49707482.75305844.49707482 1.38916111 0 .41799406-.10507102.92902596-.31521306 1.53309572-.21014204.60406975-.39375382 1.19553988-.55083534 1.7744104.46592452-.31805134.93772909-.66728139 1.41541372-1.04769015s.91924891-.63439425 1.32469284-.76195647c.57708557-.18935017 1.05337017-.16913384 1.42885387.060649.3754836.22978284.6445662.59894448.8072478 1.10748494z" fill="#eb0040"/></svg>